<svg xmlns="http://www.w3.org/2000/svg" data-name="Layer 1" viewBox="0 0 32 32" id="brushingteeth"><path fill="#fe8b0c" d="M29.5,29.32H2.5a2,2,0,0,1-2-2v-4a4,4,0,0,1,4-4h23a4,4,0,0,1,4,4v4A2,2,0,0,1,29.5,29.32Z" class="colorf1748e svgShape"></path><path fill="#f0e8df" d="M4.5 18.32h3a1 1 0 0 1 1 1v2.5A2.5 2.5 0 0 1 6 24.32H6a2.5 2.5 0 0 1-2.5-2.5v-2.5A1 1 0 0 1 4.5 18.32zM9.5 17.32h3a1 1 0 0 1 1 1v3.5a2.5 2.5 0 0 1-2.5 2.5h0a2.5 2.5 0 0 1-2.5-2.5v-3.5A1 1 0 0 1 9.5 17.32zM14.5 16.32h3a1 1 0 0 1 1 1v4.5a2.5 2.5 0 0 1-2.5 2.5h0a2.5 2.5 0 0 1-2.5-2.5v-4.5a1 1 0 0 1 1-1zM19.5 17.32h3a1 1 0 0 1 1 1v3.5a2.5 2.5 0 0 1-2.5 2.5h0a2.5 2.5 0 0 1-2.5-2.5v-3.5a1 1 0 0 1 1-1zM24.5 18.32h3a1 1 0 0 1 1 1v2.5a2.5 2.5 0 0 1-2.5 2.5h0a2.5 2.5 0 0 1-2.5-2.5v-2.5a1 1 0 0 1 1-1z" class="colordfe1f0 svgShape"></path><path fill="#b5b1ac" d="M2.549,5.43769h28a1,1,0,0,1,1,1v1a1,1,0,0,1-1,1h-30a0,0,0,0,1,0,0v-1a2,2,0,0,1,2-2Z" transform="rotate(-11 16.049 6.938)" class="coloracafb5 svgShape"></path><path fill="#fbcd9a" d="M1.12,11.36767l3.92651-.76324,1.59936,8.228a1,1,0,0,1-.372.98347l-.88622.68162a1,1,0,0,1-.878.17067l-1.077-.3a1,1,0,0,1-.7133-.77252Z" class="colorfbea9a svgShape"></path><path fill="#fbcd9a" d="M5.04646,10.60444,8.973,9.8412l1.59936,8.228a1,1,0,0,1-.372.98347l-.88622.68162a1,1,0,0,1-.878.17067l-1.077-.3a1,1,0,0,1-.7133-.77252Z" class="colorfbea9a svgShape"></path><path fill="#fbcd9a" d="M8.973 9.8412L12.89948 9.078l1.59936 8.228a1 1 0 0 1-.372.98347l-.88622.68162a1 1 0 0 1-.878.17067l-1.077-.3a1 1 0 0 1-.7133-.77252zM12.89948 9.078L16.826 8.31472l1.59936 8.228a1 1 0 0 1-.372.98347l-.88622.68162a1 1 0 0 1-.878.17067l-1.077-.3a1 1 0 0 1-.7133-.77252z" class="colorfbea9a svgShape"></path><path fill="#f6d9b9" d="M24.55263 11.53339a1.14975 1.14975 0 0 0-2.20921-.37421A1.15772 1.15772 0 0 0 20.119 11.609a1.14345 1.14345 0 0 0 .99434 1.12465 1.59526 1.59526 0 1 0 2.82841 1.009c0-.021-.00536-.04062-.00617-.06145a1.12768 1.12768 0 0 0 .54152.15227 1.15106 1.15106 0 0 0 .07557-2.3zM30.5 10.32a1 1 0 0 0-2 0 1 1 0 0 0-1 1 .9718.9718 0 0 0 .15326.5.97162.97162 0 0 0-.15326.5 1 1 0 0 0 1 1 .972.972 0 0 0 .5-.15326.972.972 0 0 0 .5.15326 1 1 0 0 0 1-1 1 1 0 0 0 0-2zM15.5 17.32a1 1 0 0 0-2 0 1 1 0 0 0-1 1 .9718.9718 0 0 0 .15326.5.97162.97162 0 0 0-.15326.5 1 1 0 0 0 1 1 .972.972 0 0 0 .5-.15326.972.972 0 0 0 .5.15326 1 1 0 0 0 1-1 1 1 0 0 0 0-2zM8.5 19.32a1 1 0 0 0-2 0 1 1 0 0 0-1 1 .9718.9718 0 0 0 .15326.5.97162.97162 0 0 0-.15326.5 1 1 0 0 0 1 1 .972.972 0 0 0 .5-.15326.972.972 0 0 0 .5.15326 1 1 0 0 0 1-1 1 1 0 0 0 0-2z" class="colorb9dff6 svgShape"></path></svg>