<svg xmlns="http://www.w3.org/2000/svg" data-name="Layer 1" viewBox="0 0 32 32" id="DentistTools"><path fill="#fe8b0c" d="M22.71777,9.0752a.5.5,0,0,1-.35352-.85352l3.53516-3.53516a.50309.50309,0,0,1,.40918-.14355l3.18164.35352a.50018.50018,0,1,1-.11133.99414l-2.94238-.32715L23.07129,8.92871A.49838.49838,0,0,1,22.71777,9.0752Z" class="color8b8891 svgShape"></path><path fill="#b3b1ae" d="M23.07,8.93l-3.35,4.09-.62994.77-1.88,2.3a13.2423,13.2423,0,0,1-1.07,1.18L8.58,24.84,5.75,27.67a1.5,1.5,0,0,1-2.56-1.06,1.49125,1.49125,0,0,1,.44-1.06l2.12-2.13,8.27-8.27c.38-.38.77-.73,1.18-1.07L17.5,12.2l.76-.63,4.1-3.35Z" class="colorafaeb3 svgShape"></path><polygon fill="#f0e8df" points="8.58 24.84 7.87 25.55 5.75 23.42 6.45 22.72 8.58 24.84" class="colordfe1f0 svgShape"></polygon><path fill="#f0e8df" d="M19.72,13.02l-.62994.77a.07589.07589,0,0,1-.04-.02l-1.52-1.53c-.01-.01-.02-.03-.03-.04l.76-.63Z" class="colordfe1f0 svgShape"></path><path fill="#fe8b0c" d="M12.86426,12.55176a.49838.49838,0,0,1-.35352-.14648l-3.541-3.542a.49995.49995,0,0,1,.707-.707l3.541,3.542a.5.5,0,0,1-.35352.85352Z" class="color8b8891 svgShape"></path><path fill="#fe8b0c" d="M6.46094,10.38574A4.00561,4.00561,0,0,1,2.3877,6.46094,4.00579,4.00579,0,0,1,6.46094,2.53516,4.00556,4.00556,0,0,1,10.5332,6.46094,4.00538,4.00538,0,0,1,6.46094,10.38574Z" class="color8b8891 svgShape"></path><path fill="#e2e1e0" d="M28.42,27.61a.99581.99581,0,0,1-1.41,0L16.05,16.65l-.71-.7v-.01l-2.48-2.47a1.00791,1.00791,0,0,1,0-1.42,1.04248,1.04248,0,0,1,.71-.29,1.02436,1.02436,0,0,1,.71.29l2.47,2.48h.01l.7.7L28.42,26.19A1.00791,1.00791,0,0,1,28.42,27.61Z" class="colore0e0e2 svgShape"></path><polygon fill="#fe8b0c" points="17.851 15.622 16.441 17.042 15.731 16.342 15.731 16.332 17.141 14.922 17.151 14.922 17.851 15.622" class="color8b8891 svgShape"></polygon></svg>